<?xml version="1.0" encoding="utf-8"?>
<svg viewBox="0 0 16 16" xmlns="http://www.w3.org/2000/svg">
  <path d="M 2.255 13.199 L 5.445 4.919 L 0.995 4.919 L 0.995 3.639 L 7.275 3.639 L 3.925 13.199 L 2.255 13.199 ZM 11.534 13.399 C 10.967 13.399 10.441 13.322 9.954 13.169 C 9.474 13.022 9.071 12.806 8.744 12.519 L 9.404 11.299 C 9.597 11.466 9.881 11.629 10.254 11.789 C 10.627 11.949 11.044 12.029 11.504 12.029 C 12.091 12.029 12.571 11.862 12.944 11.529 C 13.324 11.196 13.514 10.742 13.514 10.169 C 13.514 9.629 13.344 9.186 13.004 8.839 C 12.657 8.486 12.104 8.309 11.344 8.309 C 10.951 8.309 10.544 8.346 10.124 8.419 C 9.697 8.486 9.397 8.566 9.224 8.659 L 9.424 3.639 L 14.324 3.639 L 14.324 4.919 L 10.834 4.919 L 10.704 7.179 C 10.957 7.112 11.321 7.079 11.794 7.079 C 12.801 7.079 13.594 7.339 14.174 7.859 C 14.747 8.386 15.034 9.109 15.034 10.029 C 15.034 10.689 14.897 11.272 14.624 11.779 C 14.351 12.292 13.951 12.689 13.424 12.969 C 12.897 13.256 12.267 13.399 11.534 13.399 Z" transform="matrix(1, 0, 0, 1, 0, 0)" style="fill: rgb(51, 51, 51); white-space: pre;"/>
</svg>