<?xml version="1.0" encoding="utf-8"?>
<svg viewBox="0 0 500 587" xmlns="http://www.w3.org/2000/svg">
  <defs>
    <clipPath id="clip-0">
      <path id="two-2" d="M 257.974 276.4 C 229.205 300.541 186.229 296.687 161.984 267.792 C 137.739 238.898 141.406 195.906 170.175 171.765 C 198.944 147.625 241.921 151.479 266.166 180.373 C 290.411 209.268 286.743 252.26 257.974 276.4 Z" fill="#ffffff" fill-opacity="1" stroke="none" style=""/>
    </clipPath>
  </defs>
  <path id="one" d="M14.356 222.315 C14.359 293.833 52.491 359.863 114.384 395.584 176.277 431.304 252.526 431.288 314.404 395.54 376.281 359.792 414.384 293.746 414.356 222.284 414.353 150.844 376.23 84.82 314.348 49.096 252.466 13.373 176.227 13.376 114.348 49.106 52.469 84.835 14.353 150.862 14.356 222.315 Z M78.356 222.312 C78.353 147.202 139.239 86.309 214.35 86.306 289.46 86.303 350.353 147.189 350.356 222.3 350.359 297.41 289.473 358.303 214.362 358.306 139.252 358.309 78.359 297.423 78.356 222.312 Z" fill="#000000" fill-opacity="1" stroke="none"/>
  <path id="one-1" d="M242.68 443.881 C302.919 439.095 340.726 412.109 348.569 402.234 388.826 401.156 504.424 427.776 485 486 484.718 486.845 417.123 519.407 406 525 405.447 525.278 474.216 443.303 242.68 443.881 Z" fill="#000000" fill-opacity="1" stroke="none"/>
  <path id="one---VERITAS" d="M203.671 570.516 L203.671 564.532 207.14 564.532 207.14 568 203.671 570.516 Z M194.968 568.203 C194.13 568.203 193.348 568.057 192.623 567.762 191.897 567.467 191.273 567.059 190.752 566.537 190.23 566.016 189.817 565.41 189.511 564.719 189.205 564.028 189.052 563.273 189.052 562.457 L189.052 561.166 192.519 561.166 192.519 562.254 C192.519 562.889 192.708 563.461 193.082 563.971 193.456 564.481 194.084 564.737 194.968 564.737 195.558 564.737 196.017 564.651 196.345 564.481 196.674 564.311 196.93 564.068 197.111 563.75 197.292 563.433 197.399 563.054 197.433 562.612 197.467 562.17 197.484 561.675 197.484 561.131 197.484 560.497 197.461 559.977 197.416 559.569 197.37 559.161 197.28 558.832 197.144 558.582 196.985 558.333 196.776 558.128 196.515 557.969 196.255 557.81 195.909 557.641 195.478 557.459 L192.996 556.44 C191.5 555.828 190.498 555.017 189.988 554.008 189.478 553 189.222 551.736 189.222 550.217 189.222 549.31 189.346 548.449 189.595 547.633 189.845 546.817 190.22 546.115 190.718 545.526 191.194 544.936 191.8 544.467 192.537 544.116 193.273 543.764 194.151 543.588 195.171 543.588 196.033 543.588 196.821 543.747 197.535 544.065 198.249 544.382 198.867 544.801 199.388 545.323 200.431 546.411 200.953 547.658 200.953 549.063 L200.953 550.762 197.484 550.762 197.484 549.981 C197.484 549.188 197.297 548.5 196.923 547.922 196.549 547.344 195.921 547.055 195.037 547.055 194.561 547.055 194.175 547.147 193.88 547.328 193.586 547.51 193.347 547.736 193.166 548.008 192.984 548.303 192.861 548.636 192.793 549.01 192.725 549.384 192.689 549.776 192.689 550.184 192.689 550.66 192.708 551.056 192.742 551.373 192.776 551.691 192.86 551.974 192.996 552.223 193.132 552.472 193.331 552.688 193.591 552.87 193.852 553.051 194.208 553.233 194.662 553.414 L197.314 554.467 C198.085 554.762 198.707 555.108 199.183 555.504 199.659 555.901 200.034 556.36 200.306 556.881 200.556 557.425 200.725 558.043 200.816 558.735 200.907 559.426 200.953 560.214 200.953 561.098 200.953 562.118 200.85 563.065 200.646 563.938 200.442 564.811 200.113 565.552 199.66 566.164 199.184 566.799 198.561 567.298 197.791 567.661 197.02 568.023 196.079 568.203 194.968 568.203 Z M338.107 568.203 C337.45 568.203 336.781 568.113 336.101 567.932 335.421 567.751 334.809 567.434 334.265 566.981 333.721 566.528 333.275 565.943 332.923 565.229 332.572 564.515 332.396 563.603 332.396 562.493 L332.396 549.164 C332.396 548.371 332.532 547.633 332.804 546.953 333.076 546.273 333.462 545.685 333.961 545.186 334.459 544.687 335.054 544.295 335.746 544.012 336.437 543.729 337.202 543.588 338.041 543.588 339.673 543.588 340.997 544.121 342.017 545.186 342.516 545.707 342.908 546.325 343.191 547.039 343.474 547.753 343.617 548.529 343.617 549.368 L343.617 550.729 340.148 550.729 340.148 549.573 C340.148 548.893 339.955 548.302 339.57 547.803 339.185 547.304 338.663 547.055 338.005 547.055 337.144 547.055 336.572 547.323 336.289 547.856 336.005 548.388 335.865 549.061 335.865 549.877 L335.865 562.254 C335.865 562.957 336.018 563.546 336.324 564.022 336.63 564.498 337.179 564.737 337.972 564.737 338.199 564.737 338.442 564.697 338.703 564.618 338.963 564.538 339.207 564.408 339.433 564.227 339.637 564.046 339.809 563.796 339.945 563.479 340.081 563.162 340.148 562.763 340.148 562.287 L340.148 561.098 343.617 561.098 343.617 562.594 C343.617 563.342 343.474 564.05 343.191 564.719 342.908 565.388 342.516 565.983 342.017 566.504 341.519 567.026 340.936 567.439 340.267 567.745 339.599 568.051 338.878 568.203 338.107 568.203 Z M364.015 568.203 C363.245 568.203 362.526 568.057 361.857 567.762 361.188 567.467 360.593 567.059 360.072 566.537 359.551 566.016 359.142 565.421 358.847 564.752 358.553 564.084 358.406 563.354 358.406 562.561 L358.406 543.791 361.875 543.791 361.875 562.219 C361.875 563.08 362.078 563.715 362.486 564.123 362.894 564.531 363.403 564.737 364.015 564.737 364.627 564.737 365.139 564.531 365.547 564.123 365.955 563.715 366.158 563.08 366.158 562.219 L366.158 543.791 369.627 543.791 369.627 562.561 C369.627 563.354 369.484 564.084 369.201 564.752 368.917 565.421 368.515 566.016 367.994 566.537 367.472 567.059 366.871 567.467 366.191 567.762 365.511 568.057 364.786 568.203 364.015 568.203 Z M404.375 568.203 C403.536 568.203 402.754 568.057 402.029 567.762 401.304 567.467 400.679 567.059 400.158 566.537 399.637 566.016 399.224 565.41 398.918 564.719 398.612 564.028 398.459 563.273 398.459 562.457 L398.459 561.166 401.925 561.166 401.925 562.254 C401.925 562.889 402.114 563.461 402.488 563.971 402.862 564.481 403.491 564.737 404.375 564.737 404.964 564.737 405.423 564.651 405.752 564.481 406.08 564.311 406.334 564.068 406.515 563.75 406.697 563.433 406.805 563.054 406.839 562.612 406.873 562.17 406.89 561.675 406.89 561.131 406.89 560.497 406.867 559.977 406.822 559.569 406.777 559.161 406.686 558.832 406.55 558.582 406.392 558.333 406.182 558.128 405.922 557.969 405.661 557.81 405.315 557.641 404.884 557.459 L402.402 556.44 C400.906 555.828 399.902 555.017 399.392 554.008 398.882 553 398.629 551.736 398.629 550.217 398.629 549.31 398.752 548.449 399.002 547.633 399.251 546.817 399.626 546.115 400.125 545.526 400.601 544.936 401.206 544.467 401.943 544.116 402.68 543.764 403.558 543.588 404.578 543.588 405.439 543.588 406.227 543.747 406.941 544.065 407.655 544.382 408.273 544.801 408.795 545.323 409.837 546.411 410.357 547.658 410.357 549.063 L410.357 550.762 406.89 550.762 406.89 549.981 C406.89 549.188 406.704 548.5 406.33 547.922 405.956 547.344 405.325 547.055 404.441 547.055 403.965 547.055 403.581 547.147 403.287 547.328 402.992 547.51 402.753 547.736 402.572 548.008 402.391 548.303 402.267 548.636 402.199 549.01 402.131 549.384 402.095 549.776 402.095 550.184 402.095 550.66 402.112 551.056 402.146 551.373 402.18 551.691 402.266 551.974 402.402 552.223 402.538 552.472 402.737 552.688 402.998 552.87 403.258 553.051 403.615 553.233 404.068 553.414 L406.72 554.467 C407.491 554.762 408.113 555.108 408.589 555.504 409.065 555.901 409.441 556.36 409.713 556.881 409.962 557.425 410.132 558.043 410.222 558.735 410.313 559.426 410.357 560.214 410.357 561.098 410.357 562.118 410.256 563.065 410.052 563.938 409.848 564.811 409.519 565.552 409.066 566.164 408.59 566.799 407.968 567.298 407.197 567.661 406.426 568.023 405.485 568.203 404.375 568.203 Z M479.343 568.203 C478.505 568.203 477.723 568.057 476.998 567.762 476.272 567.467 475.65 567.059 475.129 566.537 474.607 566.016 474.192 565.41 473.886 564.719 473.58 564.028 473.427 563.273 473.427 562.457 L473.427 561.166 476.896 561.166 476.896 562.254 C476.896 562.889 477.083 563.461 477.457 563.971 477.831 564.481 478.459 564.737 479.343 564.737 479.933 564.737 480.392 564.651 480.72 564.481 481.049 564.311 481.305 564.068 481.486 563.75 481.667 563.433 481.774 563.054 481.808 562.612 481.842 562.17 481.859 561.675 481.859 561.131 481.859 560.497 481.838 559.977 481.793 559.569 481.747 559.161 481.655 558.832 481.519 558.582 481.361 558.333 481.151 558.128 480.89 557.969 480.63 557.81 480.284 557.641 479.853 557.459 L477.373 556.44 C475.877 555.828 474.873 555.017 474.363 554.008 473.853 553 473.597 551.736 473.597 550.217 473.597 549.31 473.723 548.449 473.972 547.633 474.222 546.817 474.595 546.115 475.093 545.526 475.569 544.936 476.177 544.467 476.914 544.116 477.65 543.764 478.528 543.588 479.548 543.588 480.41 543.588 481.198 543.747 481.912 544.065 482.626 544.382 483.242 544.801 483.763 545.323 484.806 546.411 485.328 547.658 485.328 549.063 L485.328 550.762 481.859 550.762 481.859 549.981 C481.859 549.188 481.672 548.5 481.298 547.922 480.924 547.344 480.296 547.055 479.412 547.055 478.936 547.055 478.55 547.147 478.255 547.328 477.961 547.51 477.724 547.736 477.543 548.008 477.361 548.303 477.236 548.636 477.168 549.01 477.1 549.384 477.066 549.776 477.066 550.184 477.066 550.66 477.083 551.056 477.117 551.373 477.151 551.691 477.237 551.974 477.373 552.223 477.509 552.472 477.706 552.688 477.966 552.87 478.227 553.051 478.585 553.233 479.039 553.414 L481.689 554.467 C482.46 554.762 483.084 555.108 483.56 555.504 484.036 555.901 484.409 556.36 484.681 556.881 484.931 557.425 485.1 558.043 485.191 558.735 485.282 559.426 485.328 560.214 485.328 561.098 485.328 562.118 485.225 563.065 485.021 563.938 484.817 564.811 484.49 565.552 484.037 566.164 483.561 566.799 482.936 567.298 482.166 567.661 481.395 568.023 480.454 568.203 479.343 568.203 Z M168.074 568 L168.074 547.055 164.062 547.055 164.062 543.791 175.554 543.791 175.554 547.055 171.543 547.055 171.543 568 168.074 568 Z M173.99 568 L179.396 543.791 182.287 543.791 187.691 568 184.224 568 183.205 562.797 178.478 562.797 177.459 568 173.99 568 Z M217.306 568 L217.306 543.791 220.773 543.791 220.773 568 217.306 568 Z M224.343 568 L224.343 543.791 227.675 543.791 232.912 558.377 232.98 558.377 232.98 543.791 236.449 543.791 236.449 568 233.183 568 227.88 553.448 227.812 553.448 227.812 568 224.343 568 Z M246.681 568 L246.681 543.791 250.15 543.791 250.15 568 246.681 568 Z M253.72 568 L253.72 543.791 257.052 543.791 262.289 558.377 262.355 558.377 262.355 543.791 265.824 543.791 265.824 568 262.56 568 257.255 553.448 257.187 553.448 257.187 568 253.72 568 Z M271.57 568 L271.57 547.055 267.558 547.055 267.558 543.791 279.05 543.791 279.05 547.055 275.039 547.055 275.039 568 271.57 568 Z M280.92 568 L280.92 543.791 291.255 543.791 291.255 547.055 284.388 547.055 284.388 554.162 290.373 554.162 290.373 557.426 284.388 557.426 284.388 564.532 291.255 564.532 291.255 568 280.92 568 Z M293.839 568 L293.839 543.791 297.308 543.791 297.308 564.532 304.175 564.532 304.175 568 293.839 568 Z M306.759 568 L306.759 543.791 310.228 543.791 310.228 564.532 317.095 564.532 317.095 568 306.759 568 Z M319.679 568 L319.679 543.791 330.015 543.791 330.015 547.055 323.148 547.055 323.148 554.162 329.132 554.162 329.132 557.426 323.148 557.426 323.148 564.532 330.015 564.532 330.015 568 319.679 568 Z M349.056 568 L349.056 547.055 345.045 547.055 345.045 543.791 356.537 543.791 356.537 547.055 352.523 547.055 352.523 568 349.056 568 Z M373.23 568 L373.23 543.791 376.562 543.791 381.015 556.61 381.084 556.61 385.504 543.791 388.871 543.791 388.871 568 385.402 568 385.402 553.278 385.334 553.278 381.9 563.682 380.166 563.682 376.765 553.278 376.699 553.278 376.699 568 373.23 568 Z M411.718 568 L417.125 543.791 420.013 543.791 425.42 568 421.953 568 420.931 562.797 416.207 562.797 415.185 568 411.718 568 Z M427.324 568 L427.324 543.791 430.656 543.791 435.892 558.377 435.961 558.377 435.961 543.791 439.427 543.791 439.427 568 436.164 568 430.859 553.448 430.793 553.448 430.793 568 427.324 568 Z M442.998 568 L442.998 543.791 446.466 543.791 446.466 568 442.998 568 Z M452.451 568 L452.451 547.055 448.437 547.055 448.437 543.791 459.929 543.791 459.929 547.055 455.918 547.055 455.918 568 452.451 568 Z M458.367 568 L463.771 543.791 466.662 543.791 472.068 568 468.599 568 467.58 562.797 462.853 562.797 461.834 568 458.367 568 Z M179.089 559.534 L182.558 559.534 180.857 550.762 180.791 550.762 179.089 559.534 Z M416.818 559.534 L420.287 559.534 418.586 550.762 418.517 550.762 416.818 559.534 Z M463.466 559.534 L466.933 559.534 465.234 550.762 465.166 550.762 463.466 559.534 Z M158.622 568 L158.622 543.792 162.09 543.792 162.09 568 Z M147.164 547.056 L147.164 554.604 149.136 554.604 C149.748 554.604 150.235 554.519 150.598 554.349 150.961 554.179 151.244 553.935 151.448 553.618 151.629 553.301 151.754 552.91 151.822 552.445 151.89 551.98 151.924 551.442 151.924 550.83 151.924 550.218 151.89 549.68 151.822 549.215 151.754 548.75 151.618 548.348 151.414 548.008 150.983 547.373 150.167 547.056 148.966 547.056 Z M143.696 568 L143.696 543.792 149.272 543.792 C153.352 543.792 155.392 546.161 155.392 550.898 155.392 552.326 155.171 553.539 154.729 554.536 154.287 555.533 153.511 556.338 152.4 556.95 L156.14 568 152.468 568 149.238 557.664 147.164 557.664 147.164 568 Z M130.776 568 L130.776 543.792 141.112 543.792 141.112 547.056 134.244 547.056 134.244 554.162 140.228 554.162 140.228 557.426 134.244 557.426 134.244 564.532 141.112 564.532 141.112 568 Z M128.362 543.792 L123.398 568 120.338 568 115.408 543.792 119.08 543.792 121.834 560.69 121.902 560.69 124.69 543.792 Z M94.906 549.504 C94.906 548.529 95.076 547.668 95.416 546.92 95.756 546.172 96.209 545.549 96.776 545.05 97.32 544.574 97.938 544.211 98.629 543.962 99.32 543.713 100.017 543.588 100.72 543.588 101.423 543.588 102.12 543.713 102.811 543.962 103.502 544.211 104.131 544.574 104.698 545.05 105.242 545.549 105.684 546.172 106.024 546.92 106.364 547.668 106.534 548.529 106.534 549.504 L106.534 562.288 C106.534 563.308 106.364 564.181 106.024 564.906 105.684 565.631 105.242 566.232 104.698 566.708 104.131 567.207 103.502 567.581 102.811 567.83 102.12 568.079 101.423 568.204 100.72 568.204 100.017 568.204 99.32 568.079 98.629 567.83 97.938 567.581 97.32 567.207 96.776 566.708 96.209 566.232 95.756 565.631 95.416 564.906 95.076 564.181 94.906 563.308 94.906 562.288 Z M98.374 562.288 C98.374 563.127 98.606 563.744 99.071 564.141 99.536 564.538 100.085 564.736 100.72 564.736 101.355 564.736 101.904 564.538 102.369 564.141 102.834 563.744 103.066 563.127 103.066 562.288 L103.066 549.504 C103.066 548.665 102.834 548.048 102.369 547.651 101.904 547.254 101.355 547.056 100.72 547.056 100.085 547.056 99.536 547.254 99.071 547.651 98.606 548.048 98.374 548.665 98.374 549.504 Z M79.538 568 L79.538 543.792 82.87 543.792 88.106 558.378 88.174 558.378 88.174 543.792 91.642 543.792 91.642 568 88.378 568 83.074 553.448 83.006 553.448 83.006 568 Z M72.5 568 L72.5 543.792 75.968 543.792 75.968 568 Z M58.696 560.316 L58.696 556.848 68.93 556.848 68.93 560.316 Z M44.008 568 L44.008 543.792 47.476 543.792 47.476 554.842 47.544 554.842 52.61 543.792 56.078 543.792 51.352 553.482 56.962 568 53.29 568 49.346 557.256 47.476 560.758 47.476 568 Z M21.772 568 L21.772 543.792 25.104 543.792 30.34 558.378 30.408 558.378 30.408 543.792 33.876 543.792 33.876 568 30.612 568 25.308 553.448 25.24 553.448 25.24 568 Z M14.734 568 L14.734 543.792 18.202 543.792 18.202 568 Z" fill="#000000" fill-opacity="1" stroke="none"/>
  <circle style="fill: rgb(255, 255, 255);" cx="214.1" cy="224" r="67.097"/>
  <g id="New-Group">
    <g id="group-1" style="mix-blend-mode: darken; clip-path: url(#clip-0);">
      <path id="one-3" d="M180.193 119.623 L315.757 182.838 286.561 245.447 150.998 182.233 Z" fill="#000000" fill-opacity="1" stroke="none"/>
      <path id="one-4" d="M143.936 202.946 L279.5 266.161 250.304 328.77 114.741 265.556 Z" fill="#000000" fill-opacity="1" stroke="none"/>
    </g>
    <g id="group" style="">
      <path id="one-2" d="M152.839 238.806 L244.234 280.441 140.495 448.582 91.554 425.76 Z" fill="#000000" fill-opacity="1" stroke="none"/>
      <path id="two" d="M175.921 283.484 L194.047 291.937 185.595 310.063 167.468 301.61 Z" fill="#ffffff" fill-opacity="1" stroke="none"/>
      <path id="two-1" d="M160.008 317.032 L178.134 325.485 152.777 379.863 134.651 371.411 Z" fill="#ffffff" fill-opacity="1" stroke="none"/>
    </g>
  </g>
  <path id="one---KINO-2" d="M319.625 470.5 L305.375 470.5 305.375 506.125 C305.375 516.287 314.45 523.825 325.925 523.825 337.363 523.825 346.475 516.287 346.475 506.125 L346.475 470.5 332.188 470.5 332.188 505.45 C332.188 509.05 329.525 511.525 325.925 511.525 322.325 511.525 319.625 509.05 319.625 505.45 Z M273.688 505.112 L282.725 523 298.138 523 287.225 502.9 C292.962 500.162 296.563 494.763 296.563 487.825 296.563 477.512 288.688 470.5 277.85 470.5 L257.563 470.5 257.563 523 271.587 523 271.587 505.112 Z M271.587 494.837 L271.587 481.563 276.125 481.563 C280.025 481.563 282.613 484.225 282.613 488.2 282.613 491.987 279.462 494.837 276.125 494.837 Z M232.175 516.325 C232.175 520.6 235.512 523.9 240.125 523.9 244.775 523.9 248.113 520.6 248.113 516.325 248.113 512.05 244.775 508.75 240.125 508.75 235.512 508.75 232.175 512.05 232.175 516.325 Z M184.775 496.75 C184.775 488.275 190.925 481.9 199.025 481.9 207.125 481.9 213.275 488.275 213.275 496.75 213.275 505.225 207.125 511.6 199.025 511.6 190.925 511.6 184.775 505.225 184.775 496.75 Z M170.488 496.75 C170.488 512.05 182.863 523.9 199.025 523.9 215.188 523.9 227.563 512.05 227.563 496.75 227.563 481.45 215.188 469.6 199.025 469.6 182.863 469.6 170.488 481.45 170.488 496.75 Z M118.738 523 L131.825 523 131.825 490.938 146.488 523 161.788 523 161.788 470.5 148.738 470.5 148.738 502.563 134.075 470.5 118.738 470.5 Z M107.375 470.5 L93.088 470.5 93.088 523 107.375 523 Z M82.738 504.288 L82.738 491.913 59.038 491.913 59.038 504.288 Z M39.8 470.5 C39.8 484.15 36.425 489.287 29.375 489.287 L27.538 489.287 27.538 470.5 13.25 470.5 13.25 523 27.538 523 27.538 501.587 32.225 501.587 42.538 523 57.763 523 45.125 497.275 C51.275 492.4 54.05 483.362 54.05 470.5 Z" fill="#000000" fill-opacity="1" stroke="none" style=""/>
</svg>